#!OML:ASF E:\Mandelcareful walks\Project 1\Capture day 1\Session 1\Subject1.ASF
:FULLY-SPECIFIED
:DEGREES
478
root -6.50204 14.363 -2.22775 -332.783 18.4542 -355.336
lowerback 22.9966 -5.0547 -6.60548
upperback 3.80121 -7.67155 4.0825
thorax -7.05321 -3.4926 10.4172
lowerneck -8.06044 -22.2236 -24.4346
upperneck 3.33615 -31.5879 31.5103
head 12.0691 -14.5265 8.38933
rclavicle -1.11319e-014 -5.96354e-015
rhumerus -16.3588 16.3104 -75.0075
rradius 57.3233
rwrist -11.2594
rhand -10.1237 -28.4764
rfingers 7.12502
rthumb 15.8645 -57.8465
lclavicle -1.11319e-014 -5.96354e-015
lhumerus 54.5464 -7.72998 37.8367
lradius 126.763
lwrist -16.72
lhand -53.239 -62.1812
lfingers 7.12502
lthumb -25.6947 -33.8954
rfemur -78.8554 3.79743 2.8224
rtibia 60.8356
rfoot -8.08861 11.7091
rtoes -18.7962
lfemur -48.2125 47.3842 -37.2916
ltibia 71.6613
lfoot -39.9599 20.7648
ltoes -21.9993
479
root -6.48191 14.3564 -2.21446 -332.819 18.0973 -355.501
lowerback 22.9878 -5.18071 -6.45438
upperback 3.87811 -7.78501 4.20252
thorax -6.94095 -3.56138 10.4842
lowerneck -8.18281 -22.2116 -24.5672
upperneck 3.25644 -31.5231 31.5632
head 12.0809 -14.4911 8.43197
rclavicle 9.14409e-015 -1.82882e-014
rhumerus -16.3654 16.1702 -74.741
rradius 57.414
rwrist -11.2099
rhand -10.461 -28.7516
rfingers 7.12502
rthumb 15.5397 -58.1472
lclavicle 9.14409e-015 -1.82882e-014
lhumerus 55.3154 -7.77215 38.0839
lradius 126.507
lwrist -16.9661
lhand -53.0463 -61.9722
lfingers 7.12502
lthumb -25.5101 -33.66
rfemur -78.9535 3.88755 3.04184
rtibia 60.9014
rfoot -8.24513 11.9033
rtoes -17.2068
lfemur -48.1083 47.5655 -37.2648
ltibia 71.6853
lfoot -40.3851 20.6708
ltoes -21.1023
480
root -6.46234 14.359 -2.20255 -332.881 17.7887 -355.583
lowerback 23.1045 -5.30754 -6.23206
upperback 3.92816 -7.89397 4.24416
thorax -6.94734 -3.61878 10.4415
lowerneck -8.46069 -22.3292 -24.2393
upperneck 3.44236 -31.589 31.0229
head 12.0083 -14.4978 8.16002
rclavicle -3.69739e-014 4.33351e-014
rhumerus -16.5943 15.8848 -74.6755
rradius 57.5734
rwrist -10.966
rhand -11.103 -29.3004
rfingers 7.12502
rthumb 14.9212 -58.743
lclavicle -3.69739e-014 4.33351e-014
lhumerus 56.1184 -7.99977 38.1156
lradius 126.167
lwrist -17.1122
lhand -53.5751 -63.0871
lfingers 7.12502
lthumb -26.0166 -34.8483
rfemur -78.9546 3.99675 3.10785
rtibia 60.9598
rfoot -8.28 12.0607
rtoes -14.7982
lfemur -47.9233 47.6732 -37.2098
ltibia 71.6956
lfoot -40.6854 20.4143
ltoes -19.6895
481
root -6.44565 14.3611 -2.19167 -332.789 17.4659 -355.526
lowerback 23.1259 -5.44305 -6.18667
upperback 3.94072 -8.05499 4.28785
thorax -6.90956 -3.70074 10.5042
lowerneck -8.45272 -22.0504 -24.9541
upperneck 3.19118 -31.2518 31.8688
head 12.1822 -14.3445 8.66008
rclavicle -6.2816e-014 1.07344e-014
rhumerus -16.7831 15.6005 -74.5912
rradius 57.6797
rwrist -11.0809
rhand -11.0199 -28.9538
rfingers 7.12502
rthumb 15.0013 -58.3904
lclavicle -6.2816e-014 1.07344e-014
lhumerus 56.7628 -8.13405 37.982
lradius 125.909
lwrist -17.0434
lhand -54.4553 -65.0703
lfingers 7.12502
lthumb -26.8591 -36.9582
rfemur -79.0952 4.03384 2.97915
rtibia 61.0095
rfoot -8.33252 12.3299
rtoes -12.203
lfemur -47.9346 47.7649 -37.3988
ltibia 71.7008
lfoot -40.8066 20.1489
ltoes -18.3676
482
root -6.42945 14.3585 -2.18226 -332.615 17.1675 -355.507
lowerback 23.0181 -5.58705 -6.14727
upperback 3.93817 -8.21882 4.40595
thorax -6.80797 -3.78923 10.6374
lowerneck -9.31077 -22.4135 -23.4711
upperneck 3.72617 -31.4816 30.0908
head 11.8452 -14.3801 7.72201
rclavicle -1.59028e-015 4.53229e-014
rhumerus -16.9232 15.3955 -74.3709
rradius 57.6873
rwrist -11.4925
rhand -10.3734 -28.2183
rfingers 7.12502
rthumb 15.624 -57.6073
lclavicle -1.59028e-015 4.53229e-014
lhumerus 57.1714 -8.20705 37.8871
lradius 125.627
lwrist -17.1488
lhand -54.9083 -66.6702
lfingers 7.12502
lthumb -27.2925 -38.6254
rfemur -79.3387 3.94295 3.00641
rtibia 61.0223
rfoot -8.34066 12.7004
rtoes -10.1676
lfemur -48.1607 47.8712 -37.6898
ltibia 71.7205
lfoot -40.6854 20.219
ltoes -18.5232
